<svg xmlns="http://www.w3.org/2000/svg" width="500" height="300"><path fill="#dfdfdf" d="M-4.894-2.184h510.165v304.631H-4.894z"/><path d="M210.428 105.477L147.422-.35-1.835.263v300.96h505.271v-138.41H305.854l-12.846 50.936-73.184 6.858-44.577-66.109z" fill="#006532"/><path d="M234.896 93.243L175.56-1.572h327.876v137.586H305.854l-1.835-37.266-28.138-17.74-28.75 1.835z" fill="#82b716"/><path d="M362.844 150a112.844 112.844 0 1 1-225.688 0 112.844 112.844 0 1 1 225.688 0z" fill="#dfdfdf"/><path d="M281.722 150.471c0 17.39-14.097 31.487-31.486 31.487-17.39 0-31.487-14.097-31.487-31.487s14.097-31.486 31.487-31.486c17.389 0 31.486 14.097 31.486 31.486z" fill="#006532"/><path d="M244.345 236.94c-7.752-.567-16.464-2.376-23.544-4.889-4.919-1.745-14.288-6.39-18.278-9.063-21.432-14.351-35.236-36.088-38.716-60.965-3.15-22.516 2.934-46.207 16.492-64.22 4.134-5.494 14.362-15.81 15.673-15.81.226 0 1.405 1.73 2.619 3.847 3.038 5.297 7.18 12.474 9.325 16.16.986 1.693 1.972 3.424 2.192 3.846.352.675.154 1.194-1.623 4.275a442.656 442.656 0 0 0-2.969 5.218c-.52.94-1.67 2.94-2.556 4.446-1.93 3.277-3.466 5.92-11.628 20.007l-6.242 10.774.663 1.197c.365.658 3.516 6.122 7.004 12.141l13.27 22.915c3.81 6.584 7.044 12.124 7.185 12.313.14.188.914 1.573 1.717 3.078.804 1.505 1.834 3.236 2.289 3.847l.827 1.112h64.938l.828-1.283c.455-.705 3.36-5.669 6.453-11.03 13.277-23.005 18.148-31.31 18.509-31.549.21-.14 6.65-.25 14.309-.242l13.925.013-.194 1.097c-2.645 14.94-8.194 27.62-17.17 39.232-2.956 3.823-10.046 11.058-13.907 14.19-8.541 6.931-19.686 12.848-29.93 15.892-9.35 2.777-21.877 4.151-31.461 3.45z" fill="#82b716"/><path d="M307.29 136.278s-2.323-4.25-16.774-29.319c-3.633-6.301-6.915-11.803-7.295-12.227l-.69-.77h-24.01c-18.793 0-24.087-.092-24.362-.427-.383-.467-13.208-22.454-13.912-23.85-.238-.473-.365-1.052-.281-1.287.19-.53 6.53-2.537 11.553-3.657 5.204-1.16 8.604-1.552 15.562-1.79 15.307-.523 26.935 1.79 40.7 8.094 18.01 8.25 33.335 23.425 41.889 41.478 3.496 7.38 6.69 17.482 6.785 21.768l.044 1.984-29.208.003z" fill="#006532"/></svg>