<svg xmlns="http://www.w3.org/2000/svg" width="500" height="300" viewBox="0 0 132.29167 79.374998"><g transform="translate(0 -217.625)"><path fill="#3e3e3e" stroke-width=".357" stroke-linejoin="round" d="M-.396 215.735h133.444v81.643H-.396z"/><path d="M67.759 228.367a21.438 21.438 0 0 0-3.294.211c-2.31.334-5.054 1.205-7.134 2.263l-.496.253-.688-.172c-1.039-.26-2.27-.403-3.847-.447-2.764-.078-5.253.298-6.832 1.032l-.67.312-.219.738c-.12.406-.272 1.02-.339 1.365-.173.894-.232 2.682-.12 3.653.187 1.634.761 3.52 1.478 4.854l.36.672-.244.742c-.68 2.054-.911 3.475-.91 5.576 0 1.794.144 2.793.63 4.37 1.447 4.7 5.622 8.573 11.444 10.619.655.23.754.293 1.302.828a9.71 9.71 0 0 0 2.6 1.81c1.103.53 1.835.736 3.36.943 2.288.31 4.033.357 6.086.163 1.128-.106 2.523-.336 3.114-.513 1.388-.415 2.786-1.241 3.946-2.331.792-.745.847-.781 1.611-1.066 5.36-1.995 9.169-5.494 10.793-9.914.682-1.856.978-4.074.81-6.07-.114-1.353-.4-2.83-.766-3.96-.153-.47-.278-.89-.278-.931 0-.042.213-.483.472-.979 1.649-3.152 1.996-6.817.956-10.072l-.171-.535-.53-.25c-2.442-1.146-7.474-1.421-10.884-.593l-.74.18-1.363-.622c-.75-.342-1.713-.742-2.141-.89-2.294-.789-4.829-1.212-7.296-1.24zm-11.003 9.023c.101 0 3.673 1.406 3.747 1.475.122.114-.172.706-.516 1.037a2.468 2.468 0 0 1-.647.439c-1.764.706-3.56-.948-2.806-2.586.092-.2.192-.365.222-.365zm20.8.075c.011 0 .02.003.025.007.141.11.345.759.345 1.1 0 .692-.504 1.412-1.206 1.721-.845.373-1.621.277-2.342-.29-.264-.207-.637-.82-.637-1.042 0-.181 3.453-1.526 3.815-1.496zm-9.988 3.42c1.62-.003 3.243.288 4.129.893 1.198.817.811 2.394-.918 3.745-.622.486-1.74 1.035-2.445 1.202-.875.206-1.527.106-2.609-.4-1.63-.763-2.85-2.067-2.946-3.148-.052-.586.032-.863.356-1.175.76-.732 2.596-1.114 4.433-1.117zm.128 11.752c.995 0 2.47.658 3.63 1.271 1.778.942 6.606-3.532 7.114-2.45.508 1.084-4.479 7.42-5.515 8.3-1.037.881-2.936 1.18-5.738 1.18-2.801 0-3.663-.294-5.399-1.18-1.735-.884-5.944-7.356-5.341-8.3.603-.942 4.375 4.073 6.974 2.45 1.44-.899 3.168-1.271 4.275-1.271z" fill="#fff" stroke-width=".046"/><ellipse cy="280.763" cx="94.493" rx=".813" ry=".852" fill="none" stroke="#f29312" stroke-width=".65" stroke-linejoin="round"/><ellipse cy="282.567" cx="98.915" rx=".813" ry=".852" fill="none" stroke="#f29312" stroke-width=".65" stroke-linejoin="round"/><ellipse cy="281.632" cx="103.337" rx=".813" ry=".852" fill="none" stroke="#f29312" stroke-width=".65" stroke-linejoin="round"/><ellipse cy="283.503" cx="107.759" rx=".813" ry=".852" fill="none" stroke="#f29312" stroke-width=".65" stroke-linejoin="round"/><ellipse cy="287.512" cx="112.182" rx=".813" ry=".852" fill="none" stroke="#f29312" stroke-width=".65" stroke-linejoin="round"/><ellipse cy="289.116" cx="116.604" rx=".813" ry=".852" fill="none" stroke="#f29312" stroke-width=".65" stroke-linejoin="round"/><ellipse cy="287.245" cx="121.026" rx=".813" ry=".852" fill="none" stroke="#f29312" stroke-width=".65" stroke-linejoin="round"/><ellipse cy="284.171" cx="125.448" rx=".813" ry=".852" fill="none" stroke="#f29312" stroke-width=".65" stroke-linejoin="round"/><ellipse cy="287.111" cx="129.87" rx=".813" ry=".852" fill="none" stroke="#f29312" stroke-width=".65" stroke-linejoin="round"/><ellipse cy="276.955" cx="90.071" rx=".813" ry=".852" fill="none" stroke="#f29312" stroke-width=".65" stroke-linejoin="round"/><path fill="#4caf50" stroke-width=".37" stroke-linejoin="round" d="M.935 268.803h2.806V297H.935z"/><path fill="#4caf50" stroke-width=".401" stroke-linejoin="round" d="M5.278 263.992h2.806V297H5.278z"/><path fill="#4caf50" stroke-width=".42" stroke-linejoin="round" d="M9.621 260.651h2.806V297H9.621z"/><path fill="#4caf50" stroke-width=".378" stroke-linejoin="round" d="M13.964 267.6h2.806V297h-2.806z"/><path fill="#4caf50" stroke-width=".356" stroke-linejoin="round" d="M18.307 270.941h2.806V297h-2.806z"/><path fill="#4caf50" stroke-width=".359" stroke-linejoin="round" d="M22.649 270.54h2.806V297h-2.806z"/><path fill="#4caf50" stroke-width=".365" stroke-linejoin="round" d="M26.992 269.605h2.806V297h-2.806z"/><path fill="#4caf50" stroke-width=".376" stroke-linejoin="round" d="M31.335 267.868h2.806V297h-2.806z"/><path fill="#4caf50" stroke-width=".369" stroke-linejoin="round" d="M35.678 268.937h2.806V297h-2.806z"/><path fill="#4caf50" stroke-width=".36" stroke-linejoin="round" d="M40.021 270.273h2.806V297h-2.806z"/><path fill="#4caf50" stroke-width=".345" stroke-linejoin="round" d="M44.363 272.545h2.806V297h-2.806z"/><path fill="#4caf50" stroke-width=".326" stroke-linejoin="round" d="M48.706 275.084h2.806V297h-2.806z"/><path fill="#4caf50" stroke-width=".331" stroke-linejoin="round" d="M53.049 274.416h2.806V297h-2.806z"/><path fill="#4caf50" stroke-width=".314" stroke-linejoin="round" d="M57.392 276.688h2.806V297h-2.806zM61.735 276.688h2.806V297h-2.806zM66.077 276.688h2.806V297h-2.806z"/><path fill="#4caf50" stroke-width=".335" stroke-linejoin="round" d="M70.42 273.853h2.806V297H70.42z"/><path fill="#4caf50" stroke-width=".338" stroke-linejoin="round" d="M74.763 273.475h2.806V297h-2.806z"/><path fill="#4caf50" stroke-width=".344" stroke-linejoin="round" d="M79.106 272.719h2.806V297h-2.806z"/><path d="M16.036 264.126l3.742 3.207 13.898-3.074 12.027 2.272 8.285 4.544 10.157 5.212 10.022 2.94 11.36-4.277 6.681 1.47 19.644-4.677 10.958 3.742 10.157-2.807" fill="none" fill-rule="evenodd" stroke="#3e3e3e" stroke-width="3.165"/><path d="M16.036 264.126l3.742 3.207 13.898-3.074 12.027 2.272 8.285 4.544 10.157 5.212 10.022 2.94 11.36-4.277 6.681 1.47 19.644-4.677 10.958 3.742 10.157-2.807" fill="none" fill-rule="evenodd" stroke="#00bfa5" stroke-width="1.465"/><ellipse cy="272.431" cx="85.12" rx=".813" ry=".852" fill="none" stroke="#f29312" stroke-width=".65" stroke-linejoin="round"/><ellipse cy="270.39" cx="80.698" rx=".813" ry=".852" fill="none" stroke="#f29312" stroke-width=".65" stroke-linejoin="round"/><ellipse cy="271.676" cx="76.275" rx=".813" ry=".852" fill="none" stroke="#f29312" stroke-width=".65" stroke-linejoin="round"/><ellipse cy="271.298" cx="71.853" rx=".813" ry=".852" fill="none" stroke="#f29312" stroke-width=".65" stroke-linejoin="round"/></g></svg>