<svg id="calendar" viewBox="0 0 30 32"><path d="M2.286 29.714h5.143v-5.143H2.286v5.143zm6.285 0h5.714v-5.143H8.571v5.143zm-6.285-6.285h5.143v-5.714H2.286v5.714zm6.285 0h5.714v-5.714H8.571v5.714zm-6.285-6.858h5.143v-5.143H2.286v5.143zm13.143 13.143h5.714v-5.143h-5.714v5.143zM8.571 16.571h5.714v-5.143H8.571v5.143zm13.715 13.143h5.143v-5.143h-5.143v5.143zm-6.857-6.285h5.714v-5.714h-5.714v5.714zM9.143 8V2.857q0-.232-.17-.402t-.402-.17H7.428q-.232 0-.402.17t-.17.402V8q0 .232.17.402t.402.17h1.143q.232 0 .402-.17T9.143 8zm13.143 15.429h5.143v-5.714h-5.143v5.714zm-6.857-6.858h5.714v-5.143h-5.714v5.143zm6.857 0h5.143v-5.143h-5.143v5.143zM22.857 8V2.857q0-.232-.17-.402t-.402-.17h-1.143q-.232 0-.402.17t-.17.402V8q0 .232.17.402t.402.17h1.143q.232 0 .402-.17t.17-.402zm6.857-1.143v22.857q0 .929-.679 1.607T27.428 32H2.285q-.929 0-1.607-.679t-.679-1.607V6.857q0-.929.679-1.607t1.607-.679h2.286V2.857q0-1.179.839-2.018T7.428 0h1.143q1.179 0 2.018.839t.839 2.018v1.714h6.857V2.857q0-1.179.839-2.018T21.142 0h1.143q1.179 0 2.018.839t.839 2.018v1.714h2.286q.929 0 1.607.679t.679 1.607z"></path></svg>
