<?xml version="1.0" encoding="UTF-8" standalone="no"?>
<svg
   viewBox="0 0 216.4144 232.00976"
   version="1.1"
   id="svg69"
   sodipodi:docname="mastodon-icon.svg"
   inkscape:version="1.2.1 (9c6d41e410, 2022-07-14, custom)"
   xmlns:inkscape="http://www.inkscape.org/namespaces/inkscape"
   xmlns:sodipodi="http://sodipodi.sourceforge.net/DTD/sodipodi-0.dtd"
   xmlns="http://www.w3.org/2000/svg"
   xmlns:svg="http://www.w3.org/2000/svg">
  <defs
     id="defs73" />
  <sodipodi:namedview
     id="namedview71"
     pagecolor="#ffffff"
     bordercolor="#666666"
     borderopacity="1.0"
     inkscape:showpageshadow="2"
     inkscape:pageopacity="0.0"
     inkscape:pagecheckerboard="0"
     inkscape:deskcolor="#d1d1d1"
     showgrid="false"
     inkscape:zoom="5.2282283"
     inkscape:cx="108.25847"
     inkscape:cy="116.00488"
     inkscape:current-layer="svg69" />
  <path
     id="path65"
     d="M 107.86523 0 C 78.204014 0.24249976 49.672405 3.4536014 33.044922 11.089844 C 33.044922 11.089844 0.068359375 25.841925 0.068359375 76.171875 C 0.068359375 87.696863 -0.15601526 101.47806 0.20898438 116.0918 C 1.4064832 165.31175 9.2327799 213.82025 54.740234 225.86523 C 75.722713 231.41898 93.737358 232.5807 108.24609 231.7832 C 134.55732 230.32445 149.32812 222.39453 149.32812 222.39453 L 148.45898 203.30469 C 148.45898 203.30469 129.65724 209.23226 108.54102 208.50977 C 87.619787 207.79227 65.534137 206.25458 62.150391 180.56836 C 61.837891 178.31211 61.681641 175.89898 61.681641 173.36523 C 61.681641 173.36523 82.21862 178.38563 108.24609 179.57812 C 124.16108 180.30812 139.08541 178.64469 154.24414 176.83594 C 183.31411 173.36469 208.62539 155.45412 211.80664 139.08789 C 216.81914 113.30667 216.40625 76.171875 216.40625 76.171875 C 216.40625 25.841925 183.43164 11.089844 183.43164 11.089844 C 166.80541 3.4536014 138.25497 0.24249976 108.59375 0 L 107.86523 0 z M 74.296875 39.326172 C 86.651863 39.326172 96.007116 44.075478 102.19336 53.574219 L 108.20703 63.654297 L 114.22266 53.574219 C 120.40765 44.075478 129.7629 39.326172 142.11914 39.326172 C 152.79663 39.326172 161.40071 43.079851 167.9707 50.402344 C 174.33945 57.724836 177.50977 67.621184 177.50977 80.076172 L 177.50977 141.01758 L 153.36523 141.01758 L 153.36523 81.869141 C 153.36523 69.400403 148.12069 63.070312 137.62695 63.070312 C 126.02446 63.070312 120.20898 70.578843 120.20898 85.423828 L 120.20898 117.79883 L 96.207031 117.79883 L 96.207031 85.423828 C 96.207031 70.578843 90.391551 63.070313 78.789062 63.070312 C 68.295323 63.070312 63.048828 69.400403 63.048828 81.869141 L 63.048828 141.01758 L 38.904297 141.01758 L 38.904297 80.076172 C 38.904297 67.621184 42.075319 57.724836 48.445312 50.402344 C 55.014056 43.079851 63.618136 39.326172 74.296875 39.326172 z " />
</svg>
