<svg preserveAspectRatio="none" xmlns="http://www.w3.org/2000/svg" xmlns:xlink="http://www.w3.org/1999/xlink" width="500" height="300" viewBox="0 0 500.00001 300"><defs><clipPath id="b"><use height="100%" width="100%" xlink:href="#a" overflow="visible"/></clipPath></defs><rect width="100%" height="100%" fill="#424242"/><g transform="matrix(.98856 0 0 .98856 146.003 45.426)"><defs><circle id="a" cx="109.4" cy="92.5" r="92.5"/></defs><path class="st1" d="M149 52H22.6c-3.2 0-5.8-2.6-5.8-5.8V5.8c0-3.2 2.6-5.8 5.8-5.8h164.7c3.2 0 5.8 2.6 5.8 5.8v2.1c0 24.3-19.8 44.1-44.1 44.1z" clip-path="url(#b)" fill="#efbf1b"/><path class="st2" d="M193.5 185H17.4s-.1 0-.1-.1V133s0-.1.1-.1h132.1c24.3 0 44 19.7 44 44v8.1z" clip-path="url(#b)" fill="#40beb0"/><path class="st3" d="M138.5 118.5H7.6v-52h130.9c14.4 0 26 11.7 26 26 0 14.4-11.7 26-26 26z" clip-path="url(#b)" transform="matrix(1.18346 0 0 1 -3.1 0)" fill="#0aa5de"/><path class="st4" d="M97.8 66.5H12.3v52H98c1.9-7.8 3-16.5 3-26 0-9.6-1.2-18.2-3.2-26z" clip-path="url(#b)" fill="#231f20"/></g><path class="st5" d="M208.183 57.783a92.01 92.01 0 0 0-36.28 38.95h67.519c-7.019-15.422-17.794-28.867-31.239-38.95z" fill="#d7a229"/><path class="st6" d="M210.853 217.337c13.147-10.677 23.626-24.517 30.15-40.433h-69.1c8.403 17.201 22.144 31.437 38.95 40.433z" fill="#009b8f"/><path d="M314.155 135.615q0-29.063-20.658-49.72-20.658-20.658-49.72-20.658-29.063 0-49.721 20.657-20.658 20.658-20.658 49.72 0 29.063 20.658 49.721 20.658 20.658 49.72 20.658 29.063 0 49.72-20.658 20.659-20.658 20.659-49.72zm80.432 130.703q0 8.169-5.97 14.138-5.97 5.97-14.138 5.97-8.483 0-14.139-5.97l-53.883-53.726q-28.12 19.48-62.68 19.48-22.465 0-42.966-8.72-20.501-8.718-35.346-23.563-14.846-14.846-23.565-35.347-8.718-20.5-8.718-42.965 0-22.465 8.718-42.965 8.72-20.501 23.565-35.347Q180.31 42.458 200.81 33.74q20.5-8.719 42.965-8.719 22.465 0 42.966 8.719 20.5 8.719 35.346 23.564 14.845 14.846 23.564 35.347 8.719 20.5 8.719 42.965 0 34.56-19.48 62.68l53.884 53.884q5.812 5.813 5.812 14.139z" fill="#ececec" stroke="#373737"/><g><path clip-path="url(#b)" d="M149 52H22.6c-3.2 0-5.8-2.6-5.8-5.8V5.8c0-3.2 2.6-5.8 5.8-5.8h164.7c3.2 0 5.8 2.6 5.8 5.8v2.1c0 24.3-19.8 44.1-44.1 44.1z" class="st1" fill="#efbf1b" transform="translate(146.003 45.426) scale(.98856)"/><path clip-path="url(#b)" d="M193.5 185H17.4s-.1 0-.1-.1V133s0-.1.1-.1h132.1c24.3 0 44 19.7 44 44v8.1z" class="st2" fill="#40beb0" transform="translate(146.003 45.426) scale(.98856)"/><path transform="matrix(1.16992 0 0 .98856 142.938 45.426)" clip-path="url(#b)" d="M138.5 118.5H7.6v-52h130.9c14.4 0 26 11.7 26 26 0 14.4-11.7 26-26 26z" class="st3" fill="#0aa5de"/><path clip-path="url(#b)" d="M97.8 66.5H12.3v52H98c1.9-7.8 3-16.5 3-26 0-9.6-1.2-18.2-3.2-26z" class="st4" fill="#231f20" transform="translate(146.003 45.426) scale(.98856)"/><path d="M208.183 57.783a92.01 92.01 0 0 0-36.28 38.95h67.519c-7.019-15.422-17.794-28.867-31.239-38.95z" class="st5" fill="#d7a229"/><path d="M210.853 217.337c13.147-10.677 23.626-24.517 30.15-40.433h-69.1c8.403 17.201 22.144 31.437 38.95 40.433z" class="st6" fill="#009b8f"/><path d="M314.155 135.615q0-29.063-20.658-49.72-20.658-20.658-49.72-20.658-29.063 0-49.721 20.657-20.658 20.658-20.658 49.72 0 29.063 20.658 49.721 20.658 20.658 49.72 20.658 29.063 0 49.72-20.658 20.659-20.658 20.659-49.72zm80.432 130.703q0 8.169-5.97 14.138-5.97 5.97-14.138 5.97-8.483 0-14.139-5.97l-53.883-53.726q-28.12 19.48-62.68 19.48-22.465 0-42.966-8.72-20.501-8.718-35.346-23.563-14.846-14.846-23.565-35.347-8.718-20.5-8.718-42.965 0-22.465 8.718-42.965 8.72-20.501 23.565-35.347Q180.31 42.458 200.81 33.74q20.5-8.719 42.965-8.719 22.465 0 42.966 8.719 20.5 8.719 35.346 23.564 14.845 14.846 23.564 35.347 8.719 20.5 8.719 42.965 0 34.56-19.48 62.68l53.884 53.884q5.812 5.813 5.812 14.139z" fill="#ececec" stroke="#363636" stroke-width="5"/></g></svg>