<svg xmlns="http://www.w3.org/2000/svg" width="500" height="300" viewBox="0 0 499.99998 300"><path fill="#00695c" stroke-width="4" stroke-linejoin="round" d="M0 0h500v300H0z"/><path d="M114.643 46.786l310.714-1.429c-1.322 53.909-.714 110.917-.714 169.286 0 22.16-17.84 40-40 40h-270c-22.16 0-40-17.84-40-40V86.786c0-22.16 17.84-39.898 40-40z" fill="#e8f5e9" stroke-width="4" stroke-linejoin="round"/><g fill="#00695c"><path d="M152.078 222.485h-17.786V104.577l-35.669 13.101v-16.065l50.682-19.03h2.773v139.902zM291.024 163.1q0 17.118-3.06 28.88-3.06 11.667-8.798 18.934-5.642 7.172-13.77 10.328-8.033 3.156-18.17 3.156-10.04 0-18.168-3.156-8.129-3.156-13.866-10.328-5.738-7.267-8.893-18.934-3.156-11.762-3.156-28.88v-21.228q0-17.117 3.06-28.688 3.156-11.571 8.893-18.647 5.738-7.077 13.77-10.137 8.129-3.06 18.17-3.06 10.136 0 18.264 3.06 8.129 3.06 13.866 10.137 5.738 7.076 8.798 18.647 3.06 11.57 3.06 28.688V163.1zm-17.691-24.193q0-11.762-1.721-19.986-1.626-8.224-4.973-13.292-3.347-5.164-8.32-7.459-4.876-2.295-11.283-2.295-6.312 0-11.284 2.295-4.877 2.295-8.224 7.46-3.252 5.067-4.973 13.291t-1.721 19.986v26.967q0 11.666 1.721 20.082 1.721 8.32 5.068 13.674 3.443 5.355 8.32 7.842 4.972 2.486 11.284 2.486 6.502 0 11.38-2.486 4.876-2.487 8.128-7.842 3.347-5.355 4.972-13.674 1.626-8.416 1.626-20.082v-26.967zM344.575 174.576l-11.093 11.57v36.339h-17.69V75.602h17.69v88.838l9.467-11.38 32.226-34.043h21.516l-40.259 43.223 44.945 60.245h-20.751l-36.051-47.909z"/></g></svg>