<svg xmlns="http://www.w3.org/2000/svg" width="500" height="300" viewBox="0 0 1560.9712 937.45837"><path fill="#cf4646" d="M0 0h1560.971v937.458H.001z"/><path d="M478.155 392.038c-6.276-3.898-12.173-8.68-15.688-14.842.992-15.424 42.161 3.023 72.772 16.569 30.61 13.546 49.284 23.355 73.895 35.097 12.842-17.973 28.928-35.154 42.133-51.083 23.827-7.597 54.273-24.751 75.209-29.798 8.462-1.887 15.88-6.916 24.321-7.745 8.528-1.333 8.063 12.447 13.88 16.619-9.043.95-15.031 8.85-24.5 9.404-24.301 11.068-52.846 19.367-73.066 31.9-7.885 8.253-25.537 30.152-34.427 42.672 20.323 13.314 67.678 33.66 79.15 51.62-95.366-1.963-185.1-61.301-233.679-100.413zm139.496 61.76c-9.773-1.816-18.35-10.687-26.193-12.821-2.077 9.518 11.522 13.24 21.462 16.893 8.1 2.976 15.976-6.565 4.731-4.073z" fill="#fff"/><path d="M347.023 685.466c52.299-162.995 104.035-294.789 104.035-294.789s84.814 89.375 247.366 122.998C643.28 618.003 574.361 709.8 531.566 776.343c-92.16-22.488-116.458-30.204-184.543-90.877z" fill="#fff"/><path d="M340.453 697.811c3.78 28.106 14.61 36.665-29.4 127.834 38.83 55.816 78.543 77.7 139.41 66.7 45.147-93.523 55.316-92.934 73.723-103.147-78.65-19.154-116.546-35.592-183.733-91.387z" fill="#fff"/><g fill="#cf4646"><g stroke-miterlimit="10" stroke="#fff"><path d="M457.969 571.54c-.251.146-.845.7-1.782 1.66-.937.963-2.098 2.176-3.482 3.644a400.209 400.209 0 0 0-4.585 4.948c-1.673 1.832-3.386 3.7-5.137 5.603a627.795 627.795 0 0 0-5.11 5.617 1522.015 1522.015 0 0 0-7.808 8.756 83.373 83.373 0 0 1-1.606 1.787c-.516.603-1.18 1.23-1.988 1.881a17.189 17.189 0 0 1-2.584 1.714c-.914.492-1.819.829-2.718 1.01-.898.179-1.694.101-2.387-.233-1.17-.565-1.83-1.365-1.984-2.398-.155-1.036.27-2.59 1.272-4.667l.44-.91c.146-.303.32-.619.524-.946.37-.675 1.272-1.843 2.703-3.499a288.459 288.459 0 0 1 4.953-5.572 418.368 418.368 0 0 1 5.905-6.353c2.066-2.178 3.917-4.125 5.558-5.842a120.114 120.114 0 0 1-9.42 3.416 75.25 75.25 0 0 1-9.748 2.417c-3.201.565-6.267.805-9.2.722-2.933-.084-5.516-.662-7.743-1.737-2.558-1.235-4.487-2.86-5.79-4.876a16.087 16.087 0 0 1-2.444-6.623c-.329-2.4-.232-4.886.29-7.462a30.798 30.798 0 0 1 2.445-7.303l.408-.845c.124-.259.267-.51.43-.752 2.224-4.048 4.875-8.024 7.954-11.927a115.549 115.549 0 0 1 10.107-11.208 133.23 133.23 0 0 1 11.578-10.058 124.335 124.335 0 0 1 12.396-8.462c4.204-2.504 8.424-4.642 12.657-6.415 4.233-1.77 8.331-3.074 12.294-3.91 3.96-.835 7.715-1.17 11.262-1.005 3.546.165 6.763.944 9.648 2.337 3.324 1.605 6.101 4.066 8.33 7.381 2.226 3.317 3.71 7.662 4.451 13.034.182 1.208.131 2.318-.153 3.326a16.872 16.872 0 0 1-1.023 2.748c-.94 1.947-2.148 3.26-3.622 3.935-1.475.676-2.851.704-4.13.087-1.17-.565-1.958-1.705-2.368-3.424-.41-1.719-.683-4.024-.817-6.917-.167-2.641-.73-4.766-1.686-6.375-.957-1.61-2.258-2.811-3.903-3.605-2.557-1.235-5.8-1.492-9.728-.774s-8.158 2.133-12.688 4.24c-4.532 2.108-9.184 4.77-13.959 7.987a138.421 138.421 0 0 0-13.575 10.415c-4.276 3.725-8.11 7.584-11.499 11.574-3.391 3.992-5.964 7.805-7.719 11.441a32.495 32.495 0 0 0-1.554 3.85c-.452 1.356-.701 2.664-.745 3.923-.045 1.259.163 2.413.626 3.463.46 1.052 1.296 1.866 2.501 2.448 1.352.652 3.106.94 5.262.859 2.154-.08 4.51-.41 7.065-.99a74.737 74.737 0 0 0 7.976-2.314 99.773 99.773 0 0 0 7.931-3.134 91.425 91.425 0 0 0 6.922-3.421c2.088-1.153 3.755-2.229 5.004-3.227l12.46-12.794c1.414-1.343 2.79-2.119 4.13-2.327 1.338-.207 2.538-.056 3.598.456.51.247.98.581 1.408 1 .428.42.754.911.978 1.473.225.562.314 1.192.27 1.89-.045.7-.255 1.439-.63 2.217-1.004 2.077-2.127 3.936-3.369 5.578a51.848 51.848 0 0 1-3.966 4.648 102.405 102.405 0 0 1-4.412 4.312 145.789 145.789 0 0 0-4.674 4.509zM520.928 617.62c-2.653 1.387-5.542 2.592-8.671 3.617a63.376 63.376 0 0 1-9.252 2.297c-3.038.506-5.888.718-8.549.634-2.662-.084-4.87-.55-6.623-1.396-1.753-.846-2.896-2.118-3.43-3.815-.53-1.697-.118-3.952 1.24-6.766.96-1.99 2.37-4.165 4.23-6.523-1.766 1.23-3.777 2.367-6.037 3.41a34.557 34.557 0 0 1-7.166 2.384c-2.516.546-5.12.715-7.813.508-2.693-.207-5.375-.953-8.04-2.24a14.673 14.673 0 0 1-3.26-2.135 8.056 8.056 0 0 1-2.18-2.972c-.487-1.14-.687-2.45-.603-3.932.083-1.479.575-3.15 1.473-5.011.021-.043.413-.668 1.176-1.874.76-1.206 2.198-2.993 4.311-5.362 2.11-2.368 5.045-5.34 8.798-8.918 3.755-3.577 8.632-7.757 14.635-12.542 1.561-1.274 3.016-2.026 4.365-2.255 1.35-.228 2.609-.061 3.778.503.512.247 1.004.58 1.48.994.475.418.87.9 1.19 1.455.318.553.503 1.15.556 1.788.053.639-.078 1.282-.392 1.932a4.994 4.994 0 0 1-.759 1.152c-.54.65-1.395 1.422-2.573 2.32-1.178.9-2.539 1.924-4.083 3.072a401.313 401.313 0 0 0-4.946 3.736 79.711 79.711 0 0 0-5.156 4.313 61.042 61.042 0 0 0-4.777 4.857c-1.499 1.704-2.733 3.47-3.703 5.293a4.761 4.761 0 0 0-.487 2.407c.051.825.497 1.441 1.338 1.847 2.375 1.147 5.016 1.46 7.924.943 2.907-.517 5.832-1.493 8.778-2.925a61.817 61.817 0 0 0 8.561-5.071c2.765-1.947 5.174-3.785 7.224-5.516a41.542 41.542 0 0 0 4.124-3.853 52.16 52.16 0 0 1 3.981-3.84c1.31-1.128 2.597-1.973 3.86-2.537 1.262-.565 2.498-.556 3.703.026 1.315.635 2.115 1.636 2.403 3 .287 1.367.096 2.741-.573 4.126-.376.78-1.138 1.731-2.29 2.855a100.477 100.477 0 0 1-4.12 3.774c-1.594 1.391-3.31 2.87-5.148 4.438a109.939 109.939 0 0 0-5.367 4.891 67.455 67.455 0 0 0-4.778 5.139c-1.444 1.73-2.573 3.439-3.387 5.126-.753 1.559-.325 2.724 1.282 3.5 1.132.547 2.727.836 4.782.87 2.058.032 4.347-.21 6.87-.725 2.523-.516 5.168-1.281 7.932-2.294a44.512 44.512 0 0 0 7.88-3.799l-3.71 9.094z" stroke-width=".92411"/><path d="M524.195 615.193a40.914 40.914 0 0 0-2.855 2.905c-1.022 1.134-1.781 2.22-2.282 3.259-.313.648-.454 1.22-.424 1.717.032.495.358.893.98 1.193.766.37 1.855.563 3.268.577 1.411.014 2.998-.101 4.76-.343a66.81 66.81 0 0 0 5.638-1.041c1.995-.45 4.005-.948 6.025-1.493a132.457 132.457 0 0 0 5.868-1.728c1.893-.608 3.601-1.184 5.126-1.728.438-.162.89-.212 1.354-.147.463.064.842.167 1.135.308.73.353 1.188.947 1.37 1.783.18.834.033 1.748-.448 2.745-.439.908-1.186 1.801-2.24 2.68-1.055.88-2.482 1.55-4.283 2.013a183.14 183.14 0 0 1-10.579 3.858c-3.482 1.147-6.823 2.028-10.024 2.643-3.204.615-6.215.881-9.037.801-2.82-.082-5.327-.652-7.52-1.71-1.498-.723-2.635-1.565-3.409-2.525-.776-.963-1.265-2-1.471-3.11-.206-1.115-.166-2.295.122-3.544a17.794 17.794 0 0 1 1.34-3.755c1.024-2.12 2.338-4.166 3.944-6.141 1.604-1.971 3.222-3.713 4.85-5.22a865.499 865.499 0 0 1 8.748-8.182c2.923-2.698 5.601-5.166 8.036-7.407L569 559.751c1.473-1.37 2.933-2.133 4.382-2.287 1.448-.154 2.738.04 3.872.588 1.13.546 1.987 1.413 2.564 2.598.575 1.186.468 2.6-.326 4.245-.376.78-.93 1.526-1.657 2.24a33.51 33.51 0 0 1-2.525 2.224 539.448 539.448 0 0 0-6.864 5.889 1201.12 1201.12 0 0 0-8.693 7.648 1287.277 1287.277 0 0 0-9.655 8.665c-3.323 3.01-6.563 5.942-9.72 8.794a1415.14 1415.14 0 0 0-8.926 8.136 2079.075 2079.075 0 0 0-7.256 6.702z" stroke-width=".92411"/><path d="M607.517 640.93c.679-.1 1.29-.15 1.833-.157.542-.004 1.015.09 1.418.284.802.387 1.233 1.036 1.291 1.944.056.907-.165 1.88-.667 2.92-.543 1.126-1.341 2.152-2.4 3.083a8.051 8.051 0 0 1-3.63 1.849 626.418 626.418 0 0 0-15.04 4.425c-4.447 1.374-8.53 2.433-12.243 3.174-3.714.742-7.139 1.05-10.275.922-3.137-.128-6.185-.905-9.145-2.334-2.776-1.34-4.63-2.983-5.56-4.926-.933-1.943-.886-3.975.138-6.096.083-.172.16-.334.235-.487.072-.15.179-.326.32-.525.772-1.228 2.06-2.448 3.861-3.658 1.802-1.212 3.835-2.391 6.1-3.538a160.484 160.484 0 0 1 7.102-3.375 291.407 291.407 0 0 0 6.91-3.187c2.138-1.021 3.98-2.013 5.524-2.976 1.546-.96 2.526-1.873 2.944-2.74.251-.519.265-1.018.048-1.497-.219-.478-.75-.921-1.59-1.327-1.462-.706-3.15-1.055-5.068-1.046-1.919.006-3.945.283-6.076.827a46.097 46.097 0 0 0-6.554 2.239 71.212 71.212 0 0 0-6.531 3.17 76.817 76.817 0 0 0-6.038 3.689 82.418 82.418 0 0 0-5.054 3.682c-.448.37-1.084.892-1.903 1.563-.82.672-1.729 1.434-2.725 2.287-.998.852-2.038 1.725-3.12 2.614-1.085.891-2.09 1.74-3.019 2.545l-2.494 2.157a66.243 66.243 0 0 1-1.539 1.298c-.372.3-1.028.89-1.97 1.77a539.72 539.72 0 0 0-3.286 3.095c-1.246 1.185-2.559 2.432-3.934 3.743-1.374 1.31-2.672 2.552-3.892 3.724a8044.04 8044.04 0 0 0-3.214 3.09c-.924.887-1.536 1.5-1.833 1.835-.908.95-1.85 1.8-2.823 2.56a14.51 14.51 0 0 1-2.968 1.808 8.705 8.705 0 0 1-3.07.76c-1.041.057-2.073-.162-3.095-.655-1.316-.636-2.25-1.474-2.807-2.516-.554-1.041-.405-2.45.452-4.224.418-.866.954-1.7 1.612-2.501.66-.803 1.368-1.57 2.123-2.298a88.857 88.857 0 0 1 2.267-2.106 85.454 85.454 0 0 0 2.134-1.972c4.062-3.375 8.165-6.743 12.31-10.104a646.079 646.079 0 0 0 12.126-10.074A353.212 353.212 0 0 0 546 623.635c3.59-3.334 6.825-6.629 9.701-9.882.669-.638 1.603-1.547 2.805-2.729a50.857 50.857 0 0 1 3.79-3.372c1.325-1.067 2.645-1.91 3.957-2.53 1.313-.62 2.444-.702 3.394-.244 1.462.706 2.36 1.552 2.692 2.54.334.99.189 2.132-.438 3.43-.126.26-.361.655-.704 1.18-.346.527-.725 1.08-1.136 1.654a40.217 40.217 0 0 1-1.22 1.614c-.4.5-.716.854-.951 1.06a83.086 83.086 0 0 1 6.5-2.265 50.363 50.363 0 0 1 6.773-1.572c2.243-.357 4.42-.48 6.53-.371 2.108.112 4.04.59 5.793 1.437a14.17 14.17 0 0 1 3.338 2.251c1.02.92 1.834 1.94 2.442 3.06a8.875 8.875 0 0 1 1.051 3.628c.092 1.3-.184 2.62-.831 3.961-.857 1.775-2.217 3.452-4.083 5.032-1.867 1.58-3.967 3.06-6.3 4.441a84.287 84.287 0 0 1-7.251 3.823 252.913 252.913 0 0 1-6.95 3.128c-2.132.918-3.93 1.704-5.394 2.357-1.465.655-2.31 1.167-2.533 1.539-.252.52-.29 1.02-.118 1.504.172.483.642.91 1.41 1.28.62.3 1.702.394 3.242.284 1.538-.11 3.808-.495 6.806-1.155s6.865-1.621 11.597-2.887c4.731-1.257 10.6-2.894 17.605-4.902z" stroke-width=".92411"/></g></g><g><path d="M1274.314 244.452c13.509 14.212-6.726 42.85-34.198 49.567 4.368 13.981-22.14 38.798-50.358 33.912 3.127 14.87-29.558 28.819-47.249 25.438 11.302 6.1 41.973 24.889 47.572 31.713 7.603 9.27 10.064 24.726 1.066 30.21 6.87 13.632-3.758 33.88-24.79 40.055-1.982 19.805-21.737 26.212-34.474 26.045-3.127 12.458-24.3 14.877-32.402 8.859-5.48-4.07-24.753-21.267-30.986-26.78 2.384 11.654 2.32 13.519-12.62 21.565-34.211 18.424-153.126-23.387-179.201-78.722-5.966-12.66-32.916-63.637-46.468-66.699-4.276.276-39.668-2.808-43.932 1.764-39.307 42.142-78.682.452 2.955-72.99-8.74-42.665-10.493-67.713 11.504-89.73 47.902-47.942 173.859-104.967 273.792 41.333 36.806-13.913 117.66-34.386 193.439-42.18 16.485 4.589 43.624 43.112 6.35 66.64z" fill="#543729"/><path d="M1127.27 343.86c.016.021.041.046.056.066-4.23-3.16-9.068-7.16-15.157-12.515 17.258 8.871 43.667-14.72 35.282-26.483 20.854 3.174 44.387-26.305 29.01-38.222 18.596-1.079 28.058-24.155 20.982-28.18 27.978-8.76 54.89-16.969 63.566-19.124-.618 10.986-9.013 23.03-28.584 28.343 16.29 7.74 6.317 32.92-23.648 38.146 12.361 9.554-4.17 33.05-36.937 33.8 7.097 12.396-24.35 31.199-44.57 24.17zm16.059-90.615c30.632-13.584 81.64-35.396 114.027-47.4-7.181-8.776-13.886-8.777-32.6-4.364-16.574 11.345-58.823 39.75-81.427 51.764z" fill="#2baf2b"/><path d="M1147.45 304.928c20.855 3.174 44.388-26.305 29.01-38.222 18.597-1.079 28.059-24.155 20.983-28.18-33.076 10.361-67.642 21.496-75.32 24.324 4.45-2.1 11.885-5.471 21.206-9.604 22.605-12.014 64.855-40.42 81.427-51.764-32.357 8.114-96.157 28.883-137.698 47.907-.396 3.72-1.332 10.173-4.65 18.28 2.45 46.62-16.069 88.458-51.278 107.42-10.26 5.525-22.673 9.977-37.755 12.793-3.395 12.918-34.1 37.858-69.198 39.183 49.788 39.701 119.389 46.618 175.914 16.176 47.605-25.638 42.534-85.619 30.988-95.993-2.803-2.52-12.821-10.482-18.911-15.836 17.26 8.87 43.668-14.721 35.283-26.484z" fill="#ffcc2f"/><path d="M836.958 327.513c-5.434-.023-24.701-1.005-40.325 3.141a69.743 69.743 0 0 0-2.01-4.895c10.252-2.716 31.324-4.598 35.689-19.994-17.335 17.393-34.03 11.148-49.243 19.34-9.065 4.883-20.637 14.381-28.677 23.876 4.12-11.993 18.7-49.342 51.956-67.354 12.288 5.01 30.839 20.205 32.61 45.886z" fill="#cecece"/><path d="M992.35 390.373c-12.734 17.98-31.15 66.427-68.109 37.434-35.583-27.914-21.838-49.186-59.415-76.887-12.793-9.644-11.926-14.704-15.114-24.788 1.38-20.593-6.466-60.28-47.51-72.89-2.983-15.32-1.759-60.667 42.252-84.37 76.806-41.363 175.071-11.374 221.457 74.757 10.981 20.39 19.414-9.891 21.332 11.28.626 118.056-72.124 145.924-94.894 135.464z" fill="#ef5734"/><g transform="rotate(-28.305 809.746 -1272.745)"><path d="M138.496 104.407c0 22.252 18.039 40.293 40.292 40.293s40.294-18.041 40.294-40.293c0-22.253-18.041-40.293-40.294-40.293-22.253 0-40.292 18.04-40.292 40.293z" fill="#ffcc2f"/><path d="M154.664 104.407c0 13.322 10.802 24.123 24.123 24.123 13.324 0 24.124-10.801 24.124-24.123 0-13.323-10.799-24.124-24.124-24.124-13.321 0-24.123 10.801-24.123 24.124z" fill="#543729"/><ellipse cx="178.787" cy="93.703" rx="14.057" ry="8.74" fill="#fff"/></g></g></svg>