<svg xmlns="http://www.w3.org/2000/svg" width="500" height="300" id="svg2"><g id="layer1" transform="translate(-2.02 -959.433)"><path id="rect4136" fill="#e8488b" stroke-width="3.947" stroke-linejoin="round" d="M-7.084 953.87h518.208v311.127H-7.084z"/><g id="g4253" transform="matrix(2.59953 0 0 2.59953 41.576 1041.638)"><g transform="translate(0 -13.51)" id="text4159"><path d="M53.3 50.5v-6.7l2.1-.2 4 7h4.1l-5-8.8 4.8-7.7h-4l-3.9 6.4-2 .2V27.1h-3.6v23.4h3.5z" class="st0" id="path4891" fill="#fff" fill-opacity=".925"/><path d="M66.3 50.5h3.6V34h-3.6v16.5zm0-19.3h3.6v-3.8h-3.6v3.8z" class="st0" id="path4893" fill="#fff" fill-opacity=".925"/><path d="M82 33.7c-1.9 0-4.1 1-4.1 1v-7.5h-3.6v23.4s4.3.4 6 .4c5.9 0 8.1-2 8.1-8.9 0-6.2-1.9-8.4-6.4-8.4zm-1.7 14c-.7 0-2.5-.1-2.5-.1v-10s1.9-.7 3.7-.7c2.2 0 3.2 1.5 3.2 5.2 0 4-.7 5.6-4.4 5.6z" class="st0" id="path4895" fill="#fff" fill-opacity=".925"/><path d="M104.2 39.1c0-3.8-1.7-5.5-5.7-5.5-3 0-6.6.9-6.6.9L92 37s4-.3 6.2-.3c1.6 0 2.4.6 2.4 2.4v1.2l-4.3.4c-3.5.3-5.5 1.5-5.5 5 0 3.4 1.7 5.3 4.9 5.3 2.7 0 5.3-1.2 5.3-1.2 1.2 1 2.4 1.2 4.4 1.2l.1-2.7c-1-.1-1.4-.5-1.5-1.5l.2-7.7zm-3.6 3.7v4.4s-2.2.7-4.1.7c-1.4 0-2-.9-2-2.4s.8-2.2 2.3-2.3l3.8-.4z" class="st0" id="path4897" fill="#fff" fill-opacity=".925"/><path d="M112.3 50.5V37.7s1.8-.9 3.7-.9c2.5 0 2.9 1.6 2.9 4.9v8.8h3.6v-8.9c0-5.4-1.1-8-5.7-8-2.1 0-4.6 1.4-4.6 1.4v-1h-3.6v16.5h3.7z" class="st0" id="path4899" fill="#fff" fill-opacity=".925"/><path d="M138.9 39.1c0-3.8-1.7-5.5-5.7-5.5-3 0-6.6.9-6.6.9l.1 2.5s4-.3 6.2-.3c1.6 0 2.4.6 2.4 2.4v1.2l-4.3.4c-3.5.3-5.5 1.5-5.5 5 0 3.4 1.7 5.3 4.9 5.3 2.7 0 5.3-1.2 5.3-1.2 1.2 1 2.4 1.2 4.4 1.2l.1-2.7c-1-.1-1.4-.5-1.5-1.5l.2-7.7zm-3.6 3.7v4.4s-2.2.7-4.1.7c-1.4 0-2-.9-2-2.4s.8-2.2 2.3-2.3l3.8-.4z" class="st0" id="path4901" fill="#fff" fill-opacity=".925"/></g><g id="g4226"><path id="path4228" d="M19.4 23.8L39.3 0H0v19.1h.7c6.8 0 13.2 1.7 18.7 4.7z" class="st1" opacity=".7" fill="#fff"/><path id="polygon4230" class="st1" opacity=".7" fill="#fff" d="M0 47.3l19.4-23.5L0 47.3z"/><path id="path4232" d="M24.5 27.1c.2.2.4.3.5.4-.1-.1-.3-.2-.5-.4z" class="st1" opacity=".7" fill="#fff"/><path id="path4234" d="M23 26c.1.1.2.1.3.2-.1 0-.2-.1-.3-.2z" class="st1" opacity=".7" fill="#fff"/><path id="path4236" d="M25.8 28.2L7 51h32.2c-1.7-9.1-6.5-17.1-13.4-22.8z" class="st1" opacity=".7" fill="#fff"/><path id="path4238" d="M22.8 25.9c-1.4-1-3.4-2.1-3.4-2.1 1.2.7 2.4 1.4 3.6 2.2-.1 0-.1 0-.2-.1z" class="st2" opacity=".5" fill="#fff"/><path id="path4240" d="M25.9 28.2s-.3-.2-.8-.6c.2.2.5.4.8.6z" class="st2" opacity=".5" fill="#fff"/><path id="path4242" d="M23.3 26.3l1.2.9c-.3-.3-.7-.6-1.2-.9z" class="st2" opacity=".5" fill="#fff"/><path id="path4244" d="M25.1 27.6c-.2-.1-.3-.3-.5-.4l-1.2-.9c-.1-.1-.2-.1-.3-.2-1.1-.8-2.3-1.5-3.6-2.2L0 47.3V51h7l18.9-22.8c-.3-.2-.6-.4-.8-.6z" class="st2" opacity=".5" fill="#fff"/><path id="path4246" d="M.7 19.1H0v28.2l19.4-23.4C13.9 20.8 7.5 19.1.7 19.1z" class="st3" fill="#fff"/></g></g><g transform="rotate(-15.272 20.65 3.517)" style="line-height:125%;-inkscape-font-specification:'Titillium Semi-Bold'" id="text4870" font-weight="600" font-size="60" font-family="Titillium" letter-spacing="0" word-spacing="0" fill="#fff"><path d="M114.66 1131.098l-1.08 21.06 4.2.9s3.78-1.62 8.34-1.62c4.26 0 6.72 1.74 6.72 6.66 0 4.74-2.7 7.38-7.32 7.38-5.04 0-12.12-1.2-12.12-1.2l-.72 5.04s7.5 2.04 13.62 2.04c8.52 0 13.44-4.92 13.44-13.92 0-8.46-4.8-11.88-12.72-11.88-3.96 0-8.04 1.86-8.04 1.86l1.02-10.44h18.36v-5.88h-23.7z" style="-inkscape-font-specification:'Titillium Semi-Bold'" id="path4875"/></g></g><style id="style4215">.st0{fill:#fff;fill-opacity:.9253}.st1{opacity:.7;fill:#fff}.st2{opacity:.5}.st2,.st3{fill:#fff}</style></svg>